# xmcd
#
# Track frame offsets:
#	182
#	38107
#	82307
#	115690
#	147830
#	181897
#	221112
#	247857
#	274725
#	302077
#	335275
#
# Disc length: 4735
#
# Revision: 4
# Processed by: cddbd v1.5.1PL0 Copyright (c) Steve Scherf et al.
# Submitted via: EasyCDDAExtractor 5.0.7
# Normalized: r3:DSETVAR1
#
DISCID=9a127d0b
DTITLE=Various Artist - Brilliant! The Global Dance Music Experience Volume 4
DYEAR=1994
DGENRE=Club
TTITLE0=Unation - Dreaming(Elevation Mix)
TTITLE1=River Ocean Featuring India - Love And Happiness( Yemaya Y Ochun)(12 Inch Club Mix)
TTITLE2=Liberty City - If You Really Love Someone(Original Mix)
TTITLE3=Shara Nelson - Down That Road(Def Classic Mix)
TTITLE4=Barbara Tucker - Beautiful People(CJ's Vocal Mix)
TTITLE5=Diana Ross - Someday We'll Be Together('93 Remix)
TTITLE6=Lisa Lisa - When I Fell In Love(Suena Factoria Mix)
TTITLE7=K-Klass - What You're Missing(Klub Mix)
TTITLE8=Richard Darbyshire - Whenever Love Is Found(West End D'Vox Mix)
TTITLE9=Eternal - Just A Step From Heaven(Nigel Lowis Club Mix)
TTITLE10=Sagat - Funk Dat(Extended Radio Mix)
EXTD=
EXTT0=
EXTT1=
EXTT2=
EXTT3=
EXTT4=
EXTT5=
EXTT6=
EXTT7=
EXTT8=
EXTT9=
EXTT10=
PLAYORDER=
